<svg width="28" height="26" viewBox="0 0 28 26" fill="none" xmlns="http://www.w3.org/2000/svg">
<path d="M13.5 0.288675C13.8094 0.110042 14.1906 0.110042 14.5 0.288675L19.5622 3.21132C19.8716 3.38996 20.0622 3.72008 20.0622 4.07735V9.92265C20.0622 10.2799 19.8716 10.61 19.5622 10.7887L14.5 13.7113C14.1906 13.89 13.8094 13.89 13.5 13.7113L8.43782 10.7887C8.12842 10.61 7.93782 10.2799 7.93782 9.92265V4.07735C7.93782 3.72008 8.12842 3.38996 8.43782 3.21132L13.5 0.288675Z" fill="#CF1F7C"/>
<path d="M6.5 12.2887C6.8094 12.11 7.1906 12.11 7.5 12.2887L12.5622 15.2113C12.8716 15.39 13.0622 15.7201 13.0622 16.0774V21.9227C13.0622 22.2799 12.8716 22.61 12.5622 22.7887L7.5 25.7113C7.1906 25.89 6.8094 25.89 6.5 25.7113L1.43782 22.7887C1.12842 22.61 0.937822 22.2799 0.937822 21.9226V16.0774C0.937822 15.7201 1.12842 15.39 1.43782 15.2113L6.5 12.2887Z" fill="#CF1F7C"/>
<path d="M21 13.1547L26.0622 16.0774L26.0622 21.9226L21 24.8453L15.9378 21.9227V16.0774L21 13.1547Z" stroke="#CF1F7C" stroke-width="2"/>
</svg>
