<svg width="119" height="131" viewBox="0 0 119 131" fill="none" xmlns="http://www.w3.org/2000/svg">
<mask id="path-1-inside-1_75_52" fill="white">
<path d="M49 3.06218C55.4974 -0.68911 63.5026 -0.689111 70 3.06218L108.323 25.1878C114.82 28.9391 118.823 35.8718 118.823 43.3744V87.6256C118.823 95.1282 114.82 102.061 108.323 105.812L70 127.938C63.5026 131.689 55.4974 131.689 49 127.938L10.6772 105.812C4.17982 102.061 0.177246 95.1282 0.177246 87.6256V43.3744C0.177246 35.8718 4.17982 28.9391 10.6772 25.1878L49 3.06218Z"/>
</mask>
<path d="M49 3.06218C55.4974 -0.68911 63.5026 -0.689111 70 3.06218L108.323 25.1878C114.82 28.9391 118.823 35.8718 118.823 43.3744V87.6256C118.823 95.1282 114.82 102.061 108.323 105.812L70 127.938C63.5026 131.689 55.4974 131.689 49 127.938L10.6772 105.812C4.17982 102.061 0.177246 95.1282 0.177246 87.6256V43.3744C0.177246 35.8718 4.17982 28.9391 10.6772 25.1878L49 3.06218Z" stroke="white" stroke-width="2" stroke-dasharray="7 7" mask="url(#path-1-inside-1_75_52)"/>
</svg>
