<svg width="27" height="20" viewBox="0 0 27 20" fill="none" xmlns="http://www.w3.org/2000/svg">
<path d="M21.6667 19.5239H5.00002C4.20942 19.524 3.44876 19.2215 2.87409 18.6785C2.29942 18.1356 1.95431 17.3933 1.90955 16.6039L1.90479 16.4287V2.61918C1.90472 2.0762 2.11078 1.55344 2.48133 1.15655C2.85187 0.759665 3.35927 0.518244 3.90098 0.48108L4.04764 0.476318H18.8095C19.3525 0.476252 19.8753 0.682314 20.2722 1.05286C20.6691 1.42341 20.9105 1.9308 20.9476 2.47251L20.9524 2.61918V3.33346H22.6191C23.1621 3.33339 23.6848 3.53946 24.0817 3.91C24.4786 4.28055 24.72 4.78795 24.7572 5.32965L24.7619 5.47632V16.4287C24.762 17.2193 24.4595 17.98 23.9165 18.5546C23.3736 19.1293 22.6313 19.4744 21.8419 19.5192L21.6667 19.5239ZM5.00002 18.0954H21.6667C22.0851 18.0953 22.4882 17.9379 22.7959 17.6544C23.1037 17.3708 23.2935 16.9819 23.3276 16.5649L23.3334 16.4287V5.47632C23.3334 5.30371 23.2708 5.13695 23.1574 5.00686C23.0439 4.87678 22.8872 4.79217 22.7162 4.7687L22.6191 4.76203H20.9524V15.0001C20.9524 15.1727 20.8899 15.3395 20.7764 15.4696C20.663 15.5997 20.5063 15.6843 20.3353 15.7077L20.2381 15.7144C20.0655 15.7144 19.8987 15.6519 19.7687 15.5384C19.6386 15.425 19.554 15.2683 19.5305 15.0973L19.5238 15.0001V2.61918C19.5238 2.44657 19.4613 2.2798 19.3479 2.14972C19.2344 2.01963 19.0777 1.93503 18.9067 1.91156L18.8095 1.90489H4.04764C3.87504 1.9049 3.70827 1.96741 3.57818 2.08086C3.4481 2.19431 3.3635 2.35103 3.34002 2.52203L3.33336 2.61918V16.4287C3.33337 16.847 3.49066 17.25 3.774 17.5576C4.05735 17.8653 4.44602 18.0552 4.86288 18.0897L5.00002 18.0954ZM9.75812 9.05156C10.4153 9.05156 10.9486 9.58489 10.9486 10.242V13.5716C10.9486 14.2287 10.4153 14.762 9.75812 14.762H6.4286C5.77145 14.762 5.23812 14.2287 5.23812 13.5716V10.242C5.23812 9.58489 5.77145 9.05156 6.4286 9.05156H9.75812ZM13.5715 13.3335H16.901C17.082 13.3335 17.2562 13.4023 17.3884 13.5258C17.5206 13.6494 17.601 13.8185 17.6134 13.9991C17.6257 14.1796 17.5691 14.3581 17.4549 14.4985C17.3406 14.6389 17.1774 14.7307 16.9981 14.7554L16.901 14.762H13.5715C13.3905 14.762 13.2163 14.6932 13.084 14.5697C12.9518 14.4461 12.8714 14.277 12.859 14.0964C12.8467 13.9159 12.9034 13.7374 13.0176 13.597C13.1318 13.4566 13.295 13.3648 13.4743 13.3401L13.5715 13.3335ZM9.52098 10.4801H6.66669V13.3335H9.52098V10.4801ZM13.5715 9.05156H16.901C17.082 9.05161 17.2562 9.12036 17.3884 9.24391C17.5206 9.36746 17.601 9.5366 17.6134 9.71716C17.6257 9.89771 17.5691 10.0762 17.4549 10.2166C17.3406 10.357 17.1774 10.4488 16.9981 10.4735L16.901 10.4801H13.5715C13.3892 10.482 13.2131 10.4141 13.0793 10.2903C12.9454 10.1666 12.864 9.99638 12.8516 9.81453C12.8391 9.63268 12.8967 9.45297 13.0125 9.31218C13.1283 9.1714 13.2935 9.08021 13.4743 9.05727L13.5715 9.05156ZM5.9486 4.75918H16.901C17.082 4.75923 17.2562 4.82798 17.3884 4.95153C17.5206 5.07508 17.601 5.24422 17.6134 5.42478C17.6257 5.60533 17.5691 5.78383 17.4549 5.92422C17.3406 6.06461 17.1774 6.15641 16.9981 6.18108L16.901 6.18775H5.9486C5.7677 6.18745 5.59366 6.11853 5.4616 5.99491C5.32954 5.87128 5.24931 5.70215 5.2371 5.52167C5.22489 5.34119 5.28162 5.1628 5.39582 5.02251C5.51002 4.88223 5.6732 4.7905 5.8524 4.76584L5.9486 4.75918Z" fill="#425561"/>
</svg>
