<svg width="38" height="38" viewBox="0 0 38 38" fill="none" xmlns="http://www.w3.org/2000/svg">
<path d="M11.0833 9.5988C11.477 9.5988 11.8546 9.75518 12.1329 10.0336C12.4113 10.3119 12.5677 10.6895 12.5677 11.0832V13.5571H15.0417C15.4353 13.5571 15.8129 13.7135 16.0913 13.9919C16.3697 14.2703 16.526 14.6478 16.526 15.0415C16.526 15.4352 16.3697 15.8127 16.0913 16.0911C15.8129 16.3695 15.4353 16.5259 15.0417 16.5259H12.5677V18.9998C12.5677 19.3935 12.4113 19.7711 12.1329 20.0494C11.8546 20.3278 11.477 20.4842 11.0833 20.4842C10.6897 20.4842 10.3121 20.3278 10.0337 20.0494C9.75535 19.7711 9.59896 19.3935 9.59896 18.9998V16.5259H7.125C6.73132 16.5259 6.35376 16.3695 6.07539 16.0911C5.79701 15.8127 5.64063 15.4352 5.64062 15.0415C5.64062 14.6478 5.79701 14.2703 6.07539 13.9919C6.35376 13.7135 6.73132 13.5571 7.125 13.5571H9.59896V11.0832C9.59896 10.6895 9.75535 10.3119 10.0337 10.0336C10.3121 9.75518 10.6897 9.5988 11.0833 9.5988ZM28.8958 18.505C28.8958 17.9801 28.6873 17.4767 28.3161 17.1056C27.945 16.7344 27.4416 16.5259 26.9167 16.5259C26.3918 16.5259 25.8883 16.7344 25.5172 17.1056C25.146 17.4767 24.9375 17.9801 24.9375 18.505V18.9998C24.9375 19.5247 25.146 20.0282 25.5172 20.3993C25.8883 20.7705 26.3918 20.979 26.9167 20.979C27.4416 20.979 27.945 20.7705 28.3161 20.3993C28.6873 20.0282 28.8958 19.5247 28.8958 18.9998V18.505ZM26.9167 9.104C27.4416 9.104 27.945 9.31252 28.3161 9.68369C28.6873 10.0549 28.8958 10.5583 28.8958 11.0832V11.578C28.8958 12.1029 28.6873 12.6063 28.3161 12.9774C27.945 13.3486 27.4416 13.5571 26.9167 13.5571C26.3918 13.5571 25.8883 13.3486 25.5172 12.9774C25.146 12.6063 24.9375 12.1029 24.9375 11.578V11.0832C24.9375 10.5583 25.146 10.0549 25.5172 9.68369C25.8883 9.31252 26.3918 9.104 26.9167 9.104ZM32.8542 15.0415C32.8542 15.5664 32.6456 16.0698 32.2745 16.441C31.9033 16.8122 31.3999 17.0207 30.875 17.0207H30.3802C29.8553 17.0207 29.3519 16.8122 28.9807 16.441C28.6096 16.0698 28.401 15.5664 28.401 15.0415C28.401 14.5166 28.6096 14.0132 28.9807 13.642C29.3519 13.2709 29.8553 13.0623 30.3802 13.0623H30.875C31.3999 13.0623 31.9033 13.2709 32.2745 13.642C32.6456 14.0132 32.8542 14.5166 32.8542 15.0415ZM23.4531 17.0207C23.978 17.0207 24.4814 16.8122 24.8526 16.441C25.2238 16.0698 25.4323 15.5664 25.4323 15.0415C25.4323 14.5166 25.2238 14.0132 24.8526 13.642C24.4814 13.2709 23.978 13.0623 23.4531 13.0623H22.9583C22.4334 13.0623 21.93 13.2709 21.5589 13.642C21.1877 14.0132 20.9792 14.5166 20.9792 15.0415C20.9792 15.5664 21.1877 16.0698 21.5589 16.441C21.93 16.8122 22.4334 17.0207 22.9583 17.0207H23.4531Z" fill="white"/>
<path fill-rule="evenodd" clip-rule="evenodd" d="M20.4711 1.46351C20.4711 1.07537 20.3161 0.703115 20.0402 0.428653C19.7643 0.154191 19.3901 0 18.9999 0C18.6098 0 18.2356 0.154191 17.9597 0.428653C17.6838 0.703115 17.5288 1.07537 17.5288 1.46351V4.36517C14.7041 4.4042 11.8834 4.5525 9.07054 4.81203L8.4193 4.87057C6.15355 5.07979 4.04511 6.11345 2.49806 7.77344C0.951008 9.43343 0.0741739 11.603 0.0356021 13.8663L0.0120632 15.2576C-0.0806112 20.7043 0.360867 26.147 1.33023 31.5085C1.56337 32.7961 2.24383 33.9612 3.25275 34.8005C4.26166 35.6397 5.5349 36.0997 6.85005 36.1H7.28356C8.46972 36.1002 9.63043 35.7579 10.6249 35.1147C11.6193 34.4714 12.4047 33.5549 12.8858 32.4763L14.965 27.8087C16.5166 24.3294 21.4833 24.3294 23.0349 27.8087L25.1141 32.4763C25.5952 33.5549 26.3806 34.4714 27.375 35.1147C28.3694 35.7579 29.5302 36.1002 30.7163 36.1H31.1498C32.465 36.0997 33.7382 35.6397 34.7471 34.8005C35.7561 33.9612 36.4365 32.7961 36.6697 31.5085C37.6395 26.1471 38.081 20.7043 37.9878 15.2576L37.9643 13.8663C37.9257 11.603 37.0489 9.43343 35.5018 7.77344C33.9548 6.11345 31.8463 5.07979 29.5806 4.87057L28.9293 4.81203C26.1169 4.5521 23.2953 4.40238 20.4711 4.36322V1.46351ZM9.34123 7.72735C15.7666 7.13526 22.2333 7.13526 28.6586 7.72735L29.3099 7.78589C30.8536 7.92842 32.2902 8.63269 33.3443 9.76372C34.3983 10.8948 34.9957 12.373 35.0219 13.9151L35.0455 15.3064C35.1353 20.5627 34.7096 25.8153 33.7744 30.9894C33.6636 31.6017 33.34 32.1558 32.8603 32.5549C32.3806 32.954 31.7752 33.1728 31.1498 33.173H30.7163C30.1 33.1729 29.497 32.9949 28.9803 32.6607C28.4636 32.3264 28.0555 31.8503 27.8054 31.2899L25.7242 26.6223C23.1369 20.8229 14.863 20.8229 12.2757 26.6223L10.1965 31.2899C9.68647 32.4354 8.54288 33.173 7.28356 33.173H6.85202C6.22631 33.1732 5.62042 32.9547 5.1403 32.5555C4.66018 32.1563 4.33637 31.602 4.22549 30.9894C3.29047 25.8159 2.86476 20.564 2.9544 15.3084L2.97794 13.9151C3.00464 12.3728 3.60245 10.8946 4.65683 9.76357C5.71121 8.63258 7.14801 7.92838 8.69196 7.78589L9.34123 7.72735Z" fill="white"/>
</svg>
