<svg width="39" height="39" viewBox="0 0 39 39" fill="none" xmlns="http://www.w3.org/2000/svg">
<path d="M20.7147 6.97053L19.4482 11.3999H33.7056L32.439 6.97053C32.2206 6.21053 31.6335 5.6999 30.9735 5.6999H22.1803C21.5203 5.6999 20.9331 6.21053 20.7147 6.97053ZM16.0755 11.6849L17.7837 5.71771C18.4388 3.43178 20.2004 1.8999 22.1803 1.8999H30.9735C32.9534 1.8999 34.715 3.43178 35.3701 5.71771L37.0783 11.6849C38.2041 12.2549 39 13.6146 39 15.1999V26.5999C39 27.6508 38.306 28.4999 37.4471 28.4999H35.8942C35.0353 28.4999 34.3413 27.6508 34.3413 26.5999V23.7499H18.8125V26.5999C18.8125 27.6508 18.1185 28.4999 17.2596 28.4999H15.7067C14.8478 28.4999 14.1538 27.6508 14.1538 26.5999V15.1999C14.1538 13.6146 14.9497 12.2549 16.0755 11.6849ZM20.3653 17.0999C20.3653 16.596 20.2017 16.1127 19.9105 15.7564C19.6193 15.4001 19.2243 15.1999 18.8125 15.1999C18.4006 15.1999 18.0056 15.4001 17.7144 15.7564C17.4232 16.1127 17.2596 16.596 17.2596 17.0999C17.2596 17.6038 17.4232 18.0871 17.7144 18.4434C18.0056 18.7997 18.4006 18.9999 18.8125 18.9999C19.2243 18.9999 19.6193 18.7997 19.9105 18.4434C20.2017 18.0871 20.3653 17.6038 20.3653 17.0999ZM34.3413 18.9999C34.7532 18.9999 35.1481 18.7997 35.4394 18.4434C35.7306 18.0871 35.8942 17.6038 35.8942 17.0999C35.8942 16.596 35.7306 16.1127 35.4394 15.7564C35.1481 15.4001 34.7532 15.1999 34.3413 15.1999C33.9295 15.1999 33.5345 15.4001 33.2433 15.7564C32.952 16.1127 32.7884 16.596 32.7884 17.0999C32.7884 17.6038 32.952 18.0871 33.2433 18.4434C33.5345 18.7997 33.9295 18.9999 34.3413 18.9999Z" fill="white"/>
<path d="M19.0653 16.6107L20.2203 20.6499H15.7436V15.4499H17.7264L19.0653 16.6107ZM15.2436 20.6499H6.62587L7.80121 16.5396C7.80123 16.5395 7.80125 16.5394 7.80127 16.5394C7.99723 15.8576 8.50556 15.4499 9.02647 15.4499H15.2436V20.6499ZM4.38954 15.1488L4.38952 15.1489L2.71064 21.0138C1.54015 21.6603 0.75 23.0824 0.75 24.6999V36.0999C0.75 37.2394 1.51109 38.2499 2.55288 38.2499H4.10577C5.14757 38.2499 5.90865 37.2394 5.90865 36.0999V33.4999H20.9375V36.0999C20.9375 37.2394 21.6986 38.2499 22.7404 38.2499H24.2933C25.3351 38.2499 26.0962 37.2394 26.0962 36.0999V24.6999C26.0962 23.0824 25.306 21.6603 24.1355 21.0138L22.4566 15.1489L22.4566 15.1488C21.7791 12.7848 19.9388 11.1499 17.8197 11.1499H9.02647C6.90738 11.1499 5.06705 12.7848 4.38954 15.1488ZM6.56314 25.4146C6.81433 25.7219 6.96154 26.1478 6.96154 26.5999C6.96154 27.052 6.81433 27.4779 6.56314 27.7852C6.31309 28.0911 5.98605 28.2499 5.65865 28.2499C5.33126 28.2499 5.00422 28.0911 4.75417 27.7852C4.50298 27.4779 4.35577 27.052 4.35577 26.5999C4.35577 26.1478 4.50298 25.7219 4.75417 25.4146C5.00422 25.1087 5.33126 24.9499 5.65865 24.9499C5.98605 24.9499 6.31309 25.1087 6.56314 25.4146ZM22.092 27.7852C21.8419 28.0911 21.5149 28.2499 21.1875 28.2499C20.8601 28.2499 20.5331 28.0911 20.283 27.7852C20.0318 27.4779 19.8846 27.052 19.8846 26.5999C19.8846 26.1478 20.0318 25.7219 20.283 25.4146C20.5331 25.1087 20.8601 24.9499 21.1875 24.9499C21.5149 24.9499 21.8419 25.1087 22.092 25.4146C22.3432 25.7219 22.4904 26.1478 22.4904 26.5999C22.4904 27.052 22.3432 27.4779 22.092 27.7852Z" fill="white" stroke="#031D2C" stroke-width="0.5"/>
</svg>
