<svg width="52" height="52" viewBox="0 0 52 52" fill="none" xmlns="http://www.w3.org/2000/svg">
<path d="M15.1667 13.1351C15.7054 13.1351 16.222 13.3491 16.603 13.73C16.9839 14.111 17.1979 14.6276 17.1979 15.1663V18.5518H20.5833C21.1221 18.5518 21.6387 18.7658 22.0196 19.1467C22.4006 19.5276 22.6146 20.0443 22.6146 20.583C22.6146 21.1217 22.4006 21.6384 22.0196 22.0193C21.6387 22.4003 21.1221 22.6143 20.5833 22.6143H17.1979V25.9997C17.1979 26.5384 16.9839 27.0551 16.603 27.436C16.222 27.8169 15.7054 28.0309 15.1667 28.0309C14.6279 28.0309 14.1113 27.8169 13.7304 27.436C13.3494 27.0551 13.1354 26.5384 13.1354 25.9997V22.6143H9.75C9.21128 22.6143 8.69462 22.4003 8.31369 22.0193C7.93276 21.6384 7.71875 21.1217 7.71875 20.583C7.71875 20.0443 7.93276 19.5276 8.31369 19.1467C8.69462 18.7658 9.21128 18.5518 9.75 18.5518H13.1354V15.1663C13.1354 14.6276 13.3494 14.111 13.7304 13.73C14.1113 13.3491 14.6279 13.1351 15.1667 13.1351ZM39.5417 25.3226C39.5417 24.6043 39.2563 23.9154 38.7484 23.4075C38.2405 22.8996 37.5516 22.6143 36.8333 22.6143C36.115 22.6143 35.4262 22.8996 34.9183 23.4075C34.4103 23.9154 34.125 24.6043 34.125 25.3226V25.9997C34.125 26.718 34.4103 27.4068 34.9183 27.9148C35.4262 28.4227 36.115 28.708 36.8333 28.708C37.5516 28.708 38.2405 28.4227 38.7484 27.9148C39.2563 27.4068 39.5417 26.718 39.5417 25.9997V25.3226ZM36.8333 12.458C37.5516 12.458 38.2405 12.7433 38.7484 13.2513C39.2563 13.7592 39.5417 14.448 39.5417 15.1663V15.8434C39.5417 16.5617 39.2563 17.2506 38.7484 17.7585C38.2405 18.2664 37.5516 18.5518 36.8333 18.5518C36.115 18.5518 35.4262 18.2664 34.9183 17.7585C34.4103 17.2506 34.125 16.5617 34.125 15.8434V15.1663C34.125 14.448 34.4103 13.7592 34.9183 13.2513C35.4262 12.7433 36.115 12.458 36.8333 12.458ZM44.9583 20.583C44.9583 21.3013 44.673 21.9902 44.1651 22.4981C43.6572 23.006 42.9683 23.2913 42.25 23.2913H41.5729C40.8546 23.2913 40.1657 23.006 39.6578 22.4981C39.1499 21.9902 38.8646 21.3013 38.8646 20.583C38.8646 19.8647 39.1499 19.1758 39.6578 18.6679C40.1657 18.16 40.8546 17.8747 41.5729 17.8747H42.25C42.9683 17.8747 43.6572 18.16 44.1651 18.6679C44.673 19.1758 44.9583 19.8647 44.9583 20.583ZM32.0937 23.2913C32.812 23.2913 33.5009 23.006 34.0088 22.4981C34.5167 21.9902 34.8021 21.3013 34.8021 20.583C34.8021 19.8647 34.5167 19.1758 34.0088 18.6679C33.5009 18.16 32.812 17.8747 32.0937 17.8747H31.4167C30.6984 17.8747 30.0095 18.16 29.5016 18.6679C28.9937 19.1758 28.7083 19.8647 28.7083 20.583C28.7083 21.3013 28.9937 21.9902 29.5016 22.4981C30.0095 23.006 30.6984 23.2913 31.4167 23.2913H32.0937Z" fill="#374109"/>
<path fill-rule="evenodd" clip-rule="evenodd" d="M28.0131 2.0027C28.0131 1.47155 27.801 0.962157 27.4234 0.586578C27.0459 0.210998 26.5338 0 25.9999 0C25.466 0 24.9539 0.210998 24.5764 0.586578C24.1988 0.962157 23.9867 1.47155 23.9867 2.0027V5.97339C20.1214 6.0268 16.2615 6.22974 12.4123 6.58489L11.5211 6.66499C8.42065 6.95129 5.53542 8.36577 3.4184 10.6373C1.30138 12.9089 0.101501 15.8778 0.0487186 18.9749L0.0165076 20.8788C-0.11031 28.3322 0.493818 35.7801 1.82032 43.1169C2.13935 44.8788 3.0705 46.4733 4.45113 47.6217C5.83175 48.7702 7.57407 49.3996 9.37376 49.4H9.96697C11.5901 49.4002 13.1785 48.9318 14.5393 48.0516C15.9001 47.1714 16.9748 45.9173 17.6332 44.4413L20.4784 38.054C22.6017 33.2929 29.3982 33.2929 31.5214 38.054L34.3667 44.4413C35.025 45.9173 36.0998 47.1714 37.4606 48.0516C38.8214 48.9318 40.4097 49.4002 42.0329 49.4H42.6261C44.4258 49.3996 46.1681 48.7702 47.5487 47.6217C48.9293 46.4733 49.8605 44.8788 50.1795 43.1169C51.5067 35.7802 52.1108 28.3322 51.9833 20.8788L51.9511 18.9749C51.8983 15.8778 50.6985 12.9089 48.5814 10.6373C46.4644 8.36577 43.5792 6.95129 40.4787 6.66499L39.5875 6.58489C35.739 6.22919 31.8778 6.02431 28.0131 5.97072V2.0027ZM12.7827 10.5743C21.5754 9.76404 30.4245 9.76404 39.2171 10.5743L40.1083 10.6544C42.2208 10.8494 44.1866 11.8132 45.629 13.3609C47.0714 14.9086 47.8889 16.9315 47.9248 19.0417L47.957 20.9456C48.0799 28.1385 47.4973 35.3262 46.2176 42.4066C46.0659 43.2444 45.6232 44.0026 44.9668 44.5488C44.3103 45.0949 43.4819 45.3943 42.6261 45.3946H42.0329C41.1895 45.3945 40.3643 45.1509 39.6572 44.6936C38.9502 44.2362 38.3917 43.5846 38.0495 42.8178L35.2015 36.4305C31.661 28.4945 20.3389 28.4945 16.7984 36.4305L13.9531 42.8178C13.2552 44.3852 11.6903 45.3946 9.96697 45.3946H9.37644C8.52021 45.3949 7.69111 45.0958 7.0341 44.5496C6.37709 44.0034 5.93398 43.2449 5.78225 42.4066C4.50275 35.327 3.9202 28.1403 4.04286 20.9483L4.07507 19.0417C4.11161 16.9312 4.92967 14.9084 6.3725 13.3607C7.81534 11.813 9.78149 10.8494 11.8943 10.6544L12.7827 10.5743Z" fill="#374109"/>
</svg>
