<svg width="22" height="23" viewBox="0 0 22 23" fill="none" xmlns="http://www.w3.org/2000/svg">
<path fill-rule="evenodd" clip-rule="evenodd" d="M11 22.4292C12.4445 22.4292 13.8749 22.1447 15.2095 21.5919C16.5441 21.0391 17.7567 20.2288 18.7782 19.2074C19.7996 18.1859 20.6099 16.9733 21.1627 15.6387C21.7155 14.3041 22 12.8737 22 11.4292C22 9.98466 21.7155 8.55426 21.1627 7.21968C20.6099 5.8851 19.7996 4.67247 18.7782 3.65102C17.7567 2.62958 16.5441 1.81933 15.2095 1.26652C13.8749 0.713722 12.4445 0.429199 11 0.429199C8.08262 0.429199 5.28473 1.58812 3.22183 3.65102C1.15893 5.71392 0 8.51182 0 11.4292C0 14.3466 1.15893 17.1445 3.22183 19.2074C5.28473 21.2703 8.08262 22.4292 11 22.4292ZM10.7164 15.8781L16.8276 8.54475L14.9502 6.98031L9.69467 13.2858L6.97522 10.5651L5.247 12.2933L8.91367 15.96L9.85967 16.906L10.7164 15.8781Z" fill="#BBDC1E"/>
</svg>
