<svg width="36" height="32" viewBox="0 0 36 32" fill="none" xmlns="http://www.w3.org/2000/svg">
<path d="M17.802 28.6667C17.9075 28.6667 18.0131 28.6404 18.1186 28.5876C18.2242 28.5348 18.3034 28.482 18.3561 28.4292L31.3395 15.4459C31.6561 15.1292 31.8873 14.773 32.033 14.3772C32.1786 13.9813 32.2509 13.5855 32.2499 13.1897C32.2499 12.7674 32.1776 12.3647 32.033 11.9816C31.8884 11.5984 31.6572 11.2622 31.3395 10.973L24.6103 4.24383C24.32 3.92716 23.9833 3.69653 23.6001 3.55191C23.217 3.4073 22.8153 3.33447 22.3952 3.33341C21.9994 3.33341 21.6035 3.40625 21.2077 3.55191C20.8119 3.69758 20.4556 3.92822 20.139 4.24383L19.7036 4.67925L22.6327 7.648C23.0285 8.01744 23.3188 8.43966 23.5035 8.91466C23.6883 9.38966 23.7806 9.89105 23.7806 10.4188C23.7806 11.5272 23.4049 12.4576 22.6533 13.2102C21.9017 13.9629 20.9713 14.3386 19.8619 14.3376C19.3341 14.3376 18.8264 14.2452 18.3387 14.0605C17.851 13.8758 17.422 13.5987 17.0515 13.2292L14.0811 10.3001L7.15405 17.2272C7.07488 17.3063 7.01577 17.3924 6.97672 17.4852C6.93766 17.5781 6.91761 17.6768 6.91655 17.7813C6.91655 17.9924 6.99572 18.184 7.15405 18.3561C7.31238 18.5281 7.49711 18.6136 7.70822 18.6126C7.81377 18.6126 7.91933 18.5862 8.02488 18.5334C8.13044 18.4806 8.20961 18.4279 8.26238 18.3751L13.6457 12.9917L15.8624 15.2084L10.5186 20.5917C10.4395 20.6709 10.3804 20.7569 10.3413 20.8498C10.3022 20.9427 10.2822 21.0414 10.2811 21.1459C10.2811 21.357 10.3603 21.5417 10.5186 21.7001C10.677 21.8584 10.8617 21.9376 11.0728 21.9376C11.1784 21.9376 11.2839 21.9112 11.3895 21.8584C11.495 21.8056 11.5742 21.7529 11.627 21.7001L17.0103 16.3563L19.227 18.573L13.8832 23.9563C13.804 24.0091 13.7449 24.0883 13.7059 24.1938C13.6668 24.2994 13.6468 24.4049 13.6457 24.5105C13.6457 24.7216 13.7249 24.9063 13.8832 25.0647C14.0415 25.223 14.2263 25.3022 14.4374 25.3022C14.5429 25.3022 14.6422 25.2821 14.7351 25.242C14.8279 25.2019 14.9134 25.1428 14.9916 25.0647L20.3749 19.7209L22.5915 21.9376L17.2082 27.3209C17.1291 27.4001 17.0699 27.4856 17.0309 27.5774C16.9918 27.6692 16.9718 27.7685 16.9707 27.8751C16.9707 28.0862 17.0567 28.2709 17.2288 28.4292C17.4009 28.5876 17.5919 28.6667 17.802 28.6667ZM17.7624 31.8334C16.786 31.8334 15.922 31.5104 15.1705 30.8644C14.4189 30.2184 13.9766 29.4067 13.8436 28.4292C12.9464 28.2973 12.1943 27.9279 11.5874 27.3209C10.9804 26.714 10.611 25.9619 10.479 25.0647C9.58183 24.9327 8.83661 24.5569 8.24338 23.9373C7.65016 23.3177 7.28705 22.572 7.15405 21.7001C6.15127 21.5681 5.33322 21.1327 4.69988 20.3938C4.06655 19.6549 3.74988 18.7841 3.74988 17.7813C3.74988 17.2536 3.84911 16.7458 4.04755 16.2582C4.24599 15.7705 4.52941 15.3414 4.8978 14.9709L14.0811 5.82716L19.2666 11.0126C19.3193 11.0917 19.3985 11.1514 19.504 11.1915C19.6096 11.2316 19.7152 11.2511 19.8207 11.2501C20.0582 11.2501 20.2561 11.1778 20.4145 11.0332C20.5728 10.8886 20.652 10.697 20.652 10.4584C20.652 10.3529 20.6319 10.2473 20.5918 10.1417C20.5517 10.0362 20.4926 9.95702 20.4145 9.90425L14.7541 4.24383C14.4638 3.92716 14.1276 3.69653 13.7455 3.55191C13.3634 3.4073 12.9607 3.33447 12.5374 3.33341C12.1416 3.33341 11.7457 3.40625 11.3499 3.55191C10.9541 3.69758 10.5978 3.92822 10.2811 4.24383L4.69988 9.86466C4.46238 10.1022 4.26447 10.3792 4.10613 10.6959C3.9478 11.0126 3.84224 11.3292 3.78947 11.6459C3.73669 11.9626 3.73669 12.2861 3.78947 12.6165C3.84224 12.9469 3.9478 13.2567 4.10613 13.5459L1.8103 15.8417C1.36169 15.2348 1.03183 14.5687 0.820716 13.8436C0.609605 13.1184 0.530438 12.3859 0.583216 11.6459C0.635994 10.906 0.820716 10.1871 1.13738 9.48941C1.45405 8.79169 1.88947 8.16469 2.44363 7.60841L8.02488 2.02716C8.65822 1.42022 9.36438 0.958415 10.1434 0.641748C10.9224 0.325081 11.7204 0.166748 12.5374 0.166748C13.3544 0.166748 14.1529 0.325081 14.933 0.641748C15.713 0.958415 16.4055 1.42022 17.0103 2.02716L17.4457 2.46258L17.8811 2.02716C18.5145 1.42022 19.2206 0.958415 19.9996 0.641748C20.7786 0.325081 21.5766 0.166748 22.3936 0.166748C23.2106 0.166748 24.0092 0.325081 24.7892 0.641748C25.5693 0.958415 26.2617 1.42022 26.8666 2.02716L33.5561 8.71675C34.1631 9.32369 34.6249 10.023 34.9416 10.8147C35.2582 11.6063 35.4165 12.4112 35.4165 13.2292C35.4165 14.0473 35.2582 14.8458 34.9416 15.6248C34.6249 16.4038 34.1631 17.0963 33.5561 17.7022L20.5728 30.6459C20.2034 31.0154 19.7748 31.3056 19.2871 31.5167C18.7995 31.7279 18.2912 31.8334 17.7624 31.8334Z" fill="#374109"/>
</svg>
