<svg width="38" height="36" viewBox="0 0 38 36" fill="none" xmlns="http://www.w3.org/2000/svg">
<path d="M10.3503 34.7082C13.4344 34.7082 15.4973 36.0599 16.4075 36.8222C16.742 37.0397 17.6903 37.6932 17.894 37.7146V4.77266C16.6865 2.13626 13.1371 0.00185954 9.45838 0.00185954C4.81243 0.00185954 0.873691 3.13932 0 5.25234V36.0171C0 37.4552 0.72464 38 1.59833 38C2.30394 38 2.76854 37.7165 3.2149 37.2805C4.31137 36.1259 6.89359 34.7082 10.3503 34.7082ZM27.6687 34.7091C31.1246 34.7091 33.6894 36.1259 34.8041 37.2805C35.2307 37.6942 35.6961 37.9991 36.4017 37.9991C37.2754 37.9991 38 37.4552 38 36.0171V5.25048C37.1263 3.13653 33.2058 0 28.5599 0C24.8812 0 21.3317 2.1344 20.1242 4.7708V37.7592C20.3288 37.7369 21.2762 37.062 21.629 36.8222C22.5209 36.0599 24.5838 34.7091 27.6687 34.7091Z" fill="white"/>
</svg>
