<svg width="38" height="38" viewBox="0 0 38 38" fill="none" xmlns="http://www.w3.org/2000/svg">
<path d="M20.4187 9.78383L29.5512 23.8778C29.4456 23.9846 29.3401 24.1152 29.2345 24.234C28.0467 25.7063 26.5884 26.6443 25.3281 26.6443C24.0348 26.6443 22.6359 25.73 21.4217 24.234C19.9634 22.3936 18.0168 22.3936 16.5585 24.234C15.4301 25.6351 14.051 26.6443 12.6521 26.6443C11.9856 26.6443 11.2598 26.3831 10.5471 25.9082C10.7583 11.5411 17.2976 0 25.3347 0H29.5578C30.7258 0 31.6694 1.69792 31.6694 3.79955C31.6694 5.90117 30.7258 7.59909 29.5578 7.59909H25.3347C23.5597 7.59909 21.8836 8.38275 20.4187 9.78383ZM10.5537 7.59909C10.5537 9.6145 10.1088 11.5474 9.31682 12.9725C8.52483 14.3976 7.45066 15.1982 6.33062 15.1982C5.21057 15.1982 4.1364 14.3976 3.34441 12.9725C2.55242 11.5474 2.10749 9.6145 2.10749 7.59909C2.10749 5.58369 2.55242 3.65083 3.34441 2.22572C4.1364 0.800616 5.21057 0 6.33062 0C7.45066 0 8.52483 0.800616 9.31682 2.22572C10.1088 3.65083 10.5537 5.58369 10.5537 7.59909ZM20.2207 27.2974C21.7054 29.1378 23.5201 30.3964 25.3347 30.3964C27.1097 30.3964 28.9903 29.114 30.442 27.2974C31.2273 26.2881 32.2963 26.3712 33.0287 27.4992C33.9789 28.9122 35.1733 29.9927 36.3676 30.4914C37.5026 30.9663 38.2086 33.0086 37.9447 35.0508C37.6807 37.0931 36.5458 38.3635 35.4108 37.8886C33.7941 37.2118 32.448 35.9295 31.5704 34.9202C29.6568 36.7725 27.5122 37.9955 25.3347 37.9955C23.2297 37.9955 21.3359 36.82 20.0294 35.7514C19.6467 35.4308 19.2969 35.122 19 34.8371C18.7031 35.122 18.3599 35.4426 17.9706 35.7514C16.6641 36.82 14.7703 37.9955 12.6653 37.9955C10.4878 37.9955 8.3432 36.7725 6.4296 34.9321C5.54538 35.9295 4.20586 37.2237 2.58919 37.9005C1.45422 38.3754 0.319259 37.1049 0.0553132 35.0627C-0.208632 33.0204 0.497422 30.9782 1.63239 30.5032C2.82674 30.0045 4.02109 28.924 4.9713 27.5111C5.70375 26.395 6.77273 26.3119 7.55796 27.3092C9.01626 29.114 10.8903 30.3964 12.6653 30.3964C14.4799 30.3964 16.2946 29.1378 17.7793 27.2974C18.5117 26.3593 19.4883 26.3593 20.2207 27.2974Z" fill="white"/>
</svg>
