<svg width="20" height="20" viewBox="0 0 20 20" fill="none" xmlns="http://www.w3.org/2000/svg">
<g clip-path="url(#clip0_65_66)">
<path d="M3.58253 18.5625C3.48503 19.1175 4.03253 19.5512 4.51503 19.3037L10.0025 16.4837L15.4888 19.3037C15.9713 19.5512 16.5188 19.1175 16.4213 18.5637L15.3838 12.6512L19.7863 8.45621C20.1988 8.06371 19.9863 7.34621 19.4338 7.26871L13.3113 6.39871L10.5813 0.989965C10.5293 0.880326 10.4472 0.787694 10.3447 0.72283C10.2421 0.657967 10.1233 0.623535 10.0019 0.623535C9.88055 0.623535 9.7617 0.657967 9.65914 0.72283C9.55658 0.787694 9.47453 0.880326 9.42253 0.989965L6.69253 6.39996L0.570026 7.26996C0.0187758 7.34746 -0.194974 8.06496 0.216276 8.45746L4.62003 12.6525L3.58253 18.565V18.5625ZM9.71378 15.1037L5.10628 17.4712L5.97378 12.525C5.99466 12.4111 5.98698 12.2938 5.95142 12.1837C5.91586 12.0735 5.85354 11.9739 5.77003 11.8937L2.13753 8.43121L7.20253 7.71121C7.30723 7.69487 7.40649 7.65365 7.49197 7.59101C7.57745 7.52837 7.64666 7.44614 7.69378 7.35121L10 2.77871L12.3088 7.35121C12.3559 7.44614 12.4251 7.52837 12.5106 7.59101C12.5961 7.65365 12.6953 7.69487 12.8 7.71121L17.865 8.42996L14.2325 11.8925C14.1488 11.9728 14.0864 12.0726 14.0508 12.183C14.0153 12.2934 14.0077 12.4109 14.0288 12.525L14.8963 17.4712L10.2888 15.1037C10.1998 15.0575 10.1009 15.0333 10.0007 15.0333C9.90035 15.0333 9.80278 15.0575 9.71378 15.1037Z" fill="#425561"/>
</g>
<defs>
<clipPath id="clip0_65_66">
<rect width="20" height="20" fill="white"/>
</clipPath>
</defs>
</svg>
