<svg width="38" height="36" viewBox="0 0 38 36" fill="none" xmlns="http://www.w3.org/2000/svg">
<path d="M21.3471 11.6712C27.2089 11.6712 30.5371 16.2729 31.02 21.8341H31.1675C34.9406 21.8341 38 25.4528 38 29.917C38 34.3812 34.9406 38 31.1675 38H11.5266C7.75349 38 4.6941 34.3812 4.6941 29.917C4.6941 25.4528 7.75349 21.8341 11.5266 21.8341H11.6741C12.1594 16.2348 15.4828 11.6712 21.3471 11.6712ZM21.3471 14.5966C17.4217 14.5966 14.0031 18.3119 14.0031 23.446C14.0031 24.2593 13.3988 24.897 12.7065 24.897H11.3981C9.00959 24.8941 7.07309 27.1759 7.07309 29.9843C7.07309 32.7927 9.00959 35.0746 11.3981 35.0746H31.296C33.6845 35.0746 35.621 32.7927 35.621 29.9843C35.621 27.1759 33.6845 24.8941 31.296 24.8941H29.9876C29.2953 24.897 28.691 24.2593 28.691 23.446C28.691 18.2475 25.27 14.5966 21.3471 14.5966ZM4.22544 19.5698C4.3169 19.8941 4.31267 20.2477 4.21351 20.5686C4.11435 20.8895 3.92656 21.1573 3.68303 21.3251L3.48795 21.4304L1.58238 22.2378C1.30116 22.3588 0.993259 22.3456 0.719561 22.2009C0.445863 22.0562 0.226302 21.7904 0.104301 21.4561C-0.0177 21.1219 -0.0332561 20.7435 0.060709 20.3959C0.154674 20.0482 0.351318 19.7565 0.611749 19.5786L0.806826 19.4733L2.71478 18.6659C3.01291 18.5401 3.33946 18.5649 3.6227 18.7349C3.90595 18.905 4.12273 19.2063 4.22544 19.5727M16.3987 7.28303C17.191 7.75694 17.8856 8.37421 18.478 9.09679C17.5105 9.34252 16.6097 9.7082 15.7754 10.1938C14.701 9.39856 13.4356 9.08569 12.1947 9.30846C10.9538 9.53123 9.81398 10.2759 8.96926 11.4157C8.12453 12.5555 7.62709 14.02 7.56157 15.56C7.49606 17.1 7.86652 18.6204 8.60992 19.8624C7.82486 20.149 7.08737 20.5674 6.40936 21.091C5.4896 19.3292 5.06367 17.2458 5.19653 15.1586C5.32939 13.0714 6.01374 11.0949 7.14522 9.53047C8.27671 7.96609 9.79322 6.8997 11.4635 6.49393C13.1338 6.08816 14.8661 6.36528 16.3964 7.28303M2.11527 7.78035L2.31511 7.87396L4.1279 8.95929C4.39514 9.11905 4.60408 9.39601 4.7136 9.73568C4.82313 10.0754 4.8253 10.4531 4.71969 10.7947C4.61408 11.1362 4.40834 11.4168 4.14296 11.5812C3.87758 11.7455 3.57178 11.7818 3.28574 11.6829L3.08352 11.5893L1.27311 10.5039C1.00587 10.3442 0.796926 10.0672 0.687405 9.72753C0.577884 9.38786 0.575714 9.01008 0.681322 8.66854C0.786931 8.327 0.992669 8.04644 1.25805 7.88206C1.52343 7.71768 1.82923 7.6814 2.11527 7.78035ZM18.9419 0.832461C19.1924 0.982741 19.392 1.2364 19.5059 1.54917C19.6198 1.86195 19.6408 2.21398 19.5652 2.54384L19.4891 2.78957L18.6064 5.01874C18.4765 5.34737 18.2513 5.6043 17.9751 5.73898C17.6989 5.87366 17.3916 5.87633 17.1139 5.74646C16.8362 5.61659 16.608 5.3636 16.4743 5.03726C16.3406 4.71093 16.3111 4.33489 16.3916 3.98315L16.4677 3.73448L17.3503 1.50531C17.4189 1.33219 17.5145 1.17741 17.6318 1.04984C17.749 0.922272 17.8856 0.824426 18.0337 0.761914C18.1818 0.699403 18.3384 0.673456 18.4947 0.685562C18.651 0.697668 18.8014 0.747589 18.9419 0.832461ZM9.92789 0.738847L10.0159 0.978732L10.6725 3.32492C10.769 3.67029 10.757 4.04756 10.6388 4.38256C10.5206 4.71757 10.3047 4.98609 10.0337 5.13532C9.76264 5.28456 9.45599 5.30372 9.17404 5.18904C8.89209 5.07435 8.65522 4.83412 8.51001 4.51557L8.42198 4.27569L7.76776 1.93242C7.67275 1.58787 7.68557 1.21215 7.80372 0.878604C7.92187 0.545054 8.13686 0.277619 8.40673 0.128504C8.6766 -0.0206106 8.98197 -0.0407022 9.26323 0.0721519C9.5445 0.185006 9.78147 0.422705 9.92789 0.738847Z" fill="white"/>
</svg>
