<svg width="38" height="38" viewBox="0 0 38 38" fill="none" xmlns="http://www.w3.org/2000/svg">
<g clip-path="url(#clip0_93_265)">
<path d="M17.703 27.1374L17.3792 35.0842L17.3362 35.56L8.26602 34.9338C7.72051 34.8777 7.21023 34.638 6.81877 34.2539C6.39175 33.8653 6.04998 33.3924 5.81506 32.865L5.80432 32.8389C5.64926 32.4663 5.54499 32.0745 5.49431 31.6741L5.49124 31.651C5.44423 31.1714 5.47533 30.6873 5.58332 30.2176L5.57718 30.2468C5.68564 29.7137 5.77004 29.3178 5.83041 29.0589C5.98695 28.4941 6.14503 28.0352 6.32766 27.5871L6.29543 27.6776C6.53996 27.0157 6.67655 26.6356 6.7052 26.5373C7.82964 26.7082 11.4946 26.9087 17.7 27.139L17.703 27.1374ZM9.34339 14.4836L13.2308 22.6683L10.057 20.6824C9.21491 21.637 8.43373 22.6438 7.71812 23.6966L7.65059 23.8025C7.11037 24.5744 6.58856 25.46 6.13735 26.3839L6.08517 26.502C5.73935 27.2622 5.45543 27.9426 5.2334 28.5432C5.06093 28.9675 4.92987 29.4075 4.84205 29.857L4.83438 29.9045L4.74843 30.3573L0.646118 22.6484C0.405936 22.2907 0.271368 21.8727 0.257833 21.4421V21.4375C0.229478 21.0882 0.274434 20.737 0.38982 20.4061L0.385215 20.4245L0.557104 20.0363C1.06356 19.1298 1.88413 17.7787 3.0188 15.9831L0 14.1184L9.34339 14.4836ZM35.9248 25.6487L31.8716 33.4006C31.7101 33.8008 31.4394 34.1475 31.0904 34.4013L31.0843 34.4059C30.8131 34.6196 30.4974 34.7696 30.1604 34.8448L30.145 34.8479L29.7567 34.9338C28.7346 35.0341 27.1584 35.1185 25.0283 35.187L25.2001 38.7338L20.2338 30.8085L24.7934 22.9906L24.9438 26.7261C27.0107 26.9524 29.094 26.9864 31.1671 26.8274L31.0536 26.8351C32.3402 26.753 33.6105 26.5028 34.8321 26.0907L34.7277 26.1214L35.9248 25.6487ZM18.9784 5.69428C18.3031 6.60079 16.3954 9.73214 13.2554 15.0883L6.41514 11.0505L6.00537 10.7972L10.8643 3.10981C11.1712 2.65246 11.6163 2.31022 12.1397 2.13987L12.1565 2.13526C12.7143 1.932 13.3112 1.85903 13.9015 1.92194L13.8846 1.9204C14.2698 1.95416 14.6259 2.04471 14.9559 2.18284L14.9328 2.17363C15.2812 2.31482 15.5759 2.4683 15.8552 2.64325L15.8307 2.62944C16.1652 2.85351 16.4584 3.08832 16.7285 3.34462L16.7254 3.34155C17.0712 3.65873 17.3306 3.90684 17.5035 4.08589C17.6764 4.26494 17.9358 4.54887 18.2816 4.93766C18.6305 5.32646 18.8628 5.57867 18.9784 5.69428ZM33.1224 12.3227L37.7005 20.1621C37.961 20.6746 38.0549 21.2557 37.969 21.8242L37.9706 21.8089C37.888 22.3842 37.6822 22.9349 37.3674 23.4234L37.3766 23.408C37.1798 23.7053 36.9416 23.973 36.6691 24.203L36.663 24.2076C36.4137 24.4232 36.1484 24.6197 35.8695 24.7954L35.8419 24.8108C35.5442 24.9873 35.1973 25.1469 34.8351 25.2727L34.7937 25.285C34.3548 25.4436 34.0171 25.5587 33.7808 25.6303C33.5444 25.7019 33.1735 25.8027 32.6681 25.9327L31.6751 26.1859C31.185 25.1494 29.2774 22.0109 25.9522 16.7704L32.7111 12.5591L33.1224 12.3227ZM30.0345 7.44233L33.1009 5.64978L28.3509 13.7055L19.3007 13.2743L22.562 11.4173C22.0789 10.1309 21.5103 8.87836 20.8599 7.66794L20.9428 7.83676C20.4538 6.88607 19.8941 5.97341 19.2684 5.10648L19.3114 5.16941C18.8152 4.49925 18.3507 3.92321 17.9179 3.44131C17.6117 3.08339 17.277 2.75081 16.9172 2.44681L16.905 2.43607L16.5382 2.15521L25.2784 2.1767C25.7142 2.12983 26.1541 2.21089 26.5446 2.40998L26.5323 2.40384C26.8653 2.55424 27.1462 2.76296 27.3764 3.01926L27.3779 3.02233L27.6158 3.34616C28.1775 4.21993 28.9837 5.58532 30.0345 7.44233Z" fill="white"/>
</g>
<defs>
<clipPath id="clip0_93_265">
<rect width="38" height="38" fill="white"/>
</clipPath>
</defs>
</svg>
