<svg width="38" height="38" viewBox="0 0 38 38" fill="none" xmlns="http://www.w3.org/2000/svg">
<g clip-path="url(#clip0_93_272)">
<path fill-rule="evenodd" clip-rule="evenodd" d="M30.1578 4.9518L25.479 6.7093L28.595 16.8957C30.4727 16.3207 32.4552 16.6619 34.1388 17.8497C35.8224 19.0375 37.0806 20.9827 37.6572 23.2892C38.2339 25.5958 38.0856 28.0903 37.2427 30.2651C36.3997 32.4398 34.9255 34.1313 33.1199 34.9952C31.3144 35.859 29.3134 35.8303 27.5243 34.9149C25.7351 33.9995 24.2922 32.2662 23.4894 30.0678C22.6866 27.8695 22.5842 25.3713 23.2031 23.0819C23.8219 20.7925 25.1154 18.8839 26.8204 17.7447L25.2548 12.6266L19.8569 26.6415C19.7791 26.8428 19.6574 27.0126 19.5058 27.1313C19.3542 27.25 19.1789 27.3128 19 27.3124H15.1411C14.8973 29.708 13.9328 31.8975 12.4438 33.4361C10.9549 34.9747 9.05306 35.7469 7.12498 35.5957C5.19689 35.4445 3.38722 34.3812 2.06376 32.622C0.740311 30.8629 0.00239686 28.5398 2.10981e-06 26.1249C-0.00143826 23.7071 0.734673 21.3796 2.05835 19.6166C3.38202 17.8537 5.19365 16.7879 7.12409 16.6365C9.05453 16.4851 10.9585 17.2594 12.4481 18.8018C13.9377 20.3441 14.9008 22.5384 15.1411 24.9374H17.5161L12.8801 8.71142C12.8436 8.58335 12.825 8.44838 12.825 8.31242H11.4C11.148 8.31242 10.9064 8.18731 10.7283 7.96461C10.5501 7.74191 10.45 7.43987 10.45 7.12492C10.45 6.80998 10.5501 6.50793 10.7283 6.28523C10.9064 6.06253 11.148 5.93742 11.4 5.93742H15.675C15.927 5.93742 16.1686 6.06253 16.3468 6.28523C16.5249 6.50793 16.625 6.80998 16.625 7.12492C16.625 7.43987 16.5249 7.74191 16.3468 7.96461C16.1686 8.18731 15.927 8.31242 15.675 8.31242H14.7839L16.5338 14.4364L24.2545 9.35742L23.3377 6.36136C23.291 6.20879 23.2701 6.04582 23.2761 5.88266C23.2821 5.71949 23.315 5.55963 23.3727 5.41307C23.4303 5.2665 23.5116 5.1364 23.6113 5.03087C23.7111 4.92535 23.8272 4.84669 23.9524 4.7998L29.6115 2.67773L30.1578 4.9518ZM17.1789 16.6962L19.0523 23.2512L23.0708 12.8202L17.1789 16.6962ZM29.5127 26.5489L27.5054 19.9855C26.2744 20.8933 25.3612 22.346 24.9467 24.0558C24.5322 25.7655 24.6467 27.6075 25.2674 29.2167C25.8882 30.8259 26.9699 32.0849 28.2982 32.7442C29.6265 33.4035 31.1045 33.415 32.4393 32.7764C33.7741 32.1377 34.8682 30.8956 35.5049 29.2962C36.1416 27.6967 36.2743 25.8566 35.8769 24.1406C35.4794 22.4246 34.5807 20.9578 33.3588 20.031C32.137 19.1041 30.6812 18.7849 29.28 19.1365L31.2873 25.701C31.3732 25.994 31.3633 26.3175 31.2599 26.6015C31.1564 26.8856 30.9677 27.1072 30.7345 27.2187C30.5012 27.3301 30.2423 27.3223 30.0137 27.1969C29.7851 27.0716 29.6051 26.8388 29.5127 26.5489ZM13.2212 24.9374H7.6C7.34805 24.9374 7.10641 25.0625 6.92825 25.2852C6.75009 25.5079 6.65 25.81 6.65 26.1249C6.65 26.4399 6.75009 26.7419 6.92825 26.9646C7.10641 27.1873 7.34805 27.3124 7.6 27.3124H13.2212C12.9791 29.07 12.2188 30.6503 11.0902 31.7414C9.96164 32.8325 8.54683 33.355 7.12508 33.2059C5.70334 33.0568 4.37799 32.2468 3.41065 30.9359C2.44331 29.6249 1.9043 27.9083 1.9 26.1249C1.8987 24.3373 2.43503 22.6143 3.4026 21.2979C4.37016 19.9815 5.69825 19.1679 7.12337 19.0184C8.54848 18.8689 9.96648 19.3945 11.096 20.4909C12.2256 21.5874 12.9841 23.1745 13.2212 24.9374Z" fill="white"/>
</g>
<defs>
<clipPath id="clip0_93_272">
<rect width="38" height="38" fill="white"/>
</clipPath>
</defs>
</svg>
