<svg width="22" height="23" viewBox="0 0 22 23" fill="none" xmlns="http://www.w3.org/2000/svg">
<path d="M7.04 17.032L11 13.072L14.96 17.032L16.5 15.492L12.54 11.532L16.5 7.57198L14.96 6.03198L11 9.99198L7.04 6.03198L5.5 7.57198L9.46 11.532L5.5 15.492L7.04 17.032ZM11 22.532C9.47833 22.532 8.04833 22.243 6.71 21.6652C5.37167 21.0873 4.2075 20.3037 3.2175 19.3145C2.2275 18.3252 1.44393 17.161 0.866801 15.822C0.289668 14.4829 0.000734725 13.0529 1.3924e-06 11.532C-0.00073194 10.011 0.288201 8.58105 0.866801 7.24198C1.4454 5.90291 2.22897 4.73875 3.2175 3.74948C4.20603 2.76022 5.3702 1.97665 6.71 1.39878C8.0498 0.820916 9.4798 0.531982 11 0.531982C12.5202 0.531982 13.9502 0.820916 15.29 1.39878C16.6298 1.97665 17.794 2.76022 18.7825 3.74948C19.771 4.73875 20.555 5.90291 21.1343 7.24198C21.7136 8.58105 22.0022 10.011 22 11.532C21.9978 13.0529 21.7089 14.4829 21.1332 15.822C20.5575 17.161 19.774 18.3252 18.7825 19.3145C17.791 20.3037 16.6269 21.0877 15.29 21.6663C13.9531 22.2449 12.5231 22.5334 11 22.532Z" fill="#B60000"/>
</svg>
