<svg width="16" height="20" viewBox="0 0 16 20" fill="none" xmlns="http://www.w3.org/2000/svg">
<g clip-path="url(#clip0_65_57)">
<path fill-rule="evenodd" clip-rule="evenodd" d="M8.00021 19.1884L8.72135 18.3758C9.53964 17.4386 10.2756 16.5495 10.9305 15.7038L11.4711 14.9906C13.7282 11.9495 14.8574 9.53579 14.8574 7.75179C14.8574 3.94379 11.7876 0.856934 8.00021 0.856934C4.21278 0.856934 1.14307 3.94379 1.14307 7.75179C1.14307 9.53579 2.27221 11.9495 4.52935 14.9906L5.06992 15.7038C6.00414 16.9008 6.98155 18.0623 8.00021 19.1884Z" stroke="#425561" stroke-width="1.2" stroke-linecap="round" stroke-linejoin="round"/>
<path d="M8.00021 10.5712C9.57817 10.5712 10.8574 9.29203 10.8574 7.71408C10.8574 6.13612 9.57817 4.85693 8.00021 4.85693C6.42225 4.85693 5.14307 6.13612 5.14307 7.71408C5.14307 9.29203 6.42225 10.5712 8.00021 10.5712Z" stroke="#425561" stroke-width="1.2" stroke-linecap="round" stroke-linejoin="round"/>
</g>
<defs>
<clipPath id="clip0_65_57">
<rect width="16" height="20" fill="white"/>
</clipPath>
</defs>
</svg>
