<svg width="38" height="38" viewBox="0 0 38 38" fill="none" xmlns="http://www.w3.org/2000/svg">
<path d="M5.53443 38C5.149 38 4.826 37.8927 4.56543 37.6781C4.30486 37.4635 4.17638 37.1983 4.18 36.8824V32.6442C3.29514 32.3283 2.37771 31.657 1.42771 30.6302C0.477714 29.6035 0.00180952 28.4203 0 27.0806V6.70588C0 4.38714 1.52362 2.6898 4.57086 1.61388C7.62171 0.53796 12.4314 0 19 0C25.8092 0 30.6787 0.517098 33.6083 1.55129C36.5379 2.58549 38.0018 4.30369 38 6.70588V27.0828C38 28.421 37.525 29.6035 36.575 30.6302C35.625 31.6585 34.7076 32.3291 33.8227 32.642V36.8824C33.8227 37.1998 33.6933 37.465 33.4346 37.6781C33.1758 37.8912 32.8519 37.9985 32.4629 38H31.8386C31.4531 38 31.1301 37.8927 30.8696 37.6781C30.609 37.4635 30.4796 37.1983 30.4814 36.8824V33.5294H7.51586V36.8824C7.51586 37.1998 7.38557 37.465 7.125 37.6781C6.86443 37.8912 6.54324 37.9985 6.16143 38H5.53443ZM19.0326 5.67541H35.0659H2.99657H19.0326ZM29.8571 20.1176H2.71429H35.2857H29.8571ZM2.71429 17.8824H35.2857V7.91071H2.71429V17.8824ZM9.51357 28.2005C10.3568 28.2005 11.0698 27.9568 11.6524 27.4695C12.2369 26.9822 12.5291 26.3914 12.5291 25.6969C12.5291 25.001 12.2333 24.4124 11.6416 23.9311C11.0499 23.4527 10.3324 23.2135 9.48914 23.2135C8.6441 23.2135 7.92933 23.4564 7.34486 23.9422C6.76219 24.4295 6.47086 25.0204 6.47086 25.7148C6.47086 26.4107 6.76671 26.9994 7.35843 27.4807C7.95014 27.9605 8.66762 28.2005 9.51086 28.2005M28.5109 28.2005C29.3559 28.2005 30.0707 27.9568 30.6551 27.4695C31.236 26.9822 31.5264 26.3914 31.5264 25.6969C31.5264 25.001 31.2315 24.4124 30.6416 23.9311C30.0499 23.4527 29.3315 23.2135 28.4864 23.2135C27.6432 23.2135 26.9302 23.4564 26.3476 23.9422C25.7631 24.4295 25.4709 25.0204 25.4709 25.7148C25.4709 26.4107 25.7667 26.9994 26.3584 27.4807C26.9501 27.9605 27.6676 28.2005 28.5109 28.2005ZM2.99657 5.67541H35.0659C34.5954 4.52498 33.145 3.66439 30.7149 3.09365C28.2847 2.52141 24.3906 2.23529 19.0326 2.23529C13.7035 2.23529 9.8239 2.52588 7.39371 3.10706C4.96352 3.68674 3.49781 4.54286 2.99657 5.67541ZM8.14286 31.2941H29.8571C31.35 31.2941 32.6284 30.8567 33.6924 29.982C34.7564 29.1073 35.2875 28.0544 35.2857 26.8235V20.1176H2.71429V26.8235C2.71429 28.0529 3.24629 29.1058 4.31029 29.982C5.37429 30.8582 6.65181 31.2956 8.14286 31.2941Z" fill="white"/>
</svg>
