<svg width="38" height="38" viewBox="0 0 38 38" fill="none" xmlns="http://www.w3.org/2000/svg">
<path d="M18.8021 31.6666C18.9076 31.6666 19.0132 31.6402 19.1188 31.5875C19.2243 31.5347 19.3035 31.4819 19.3563 31.4291L32.3396 18.4458C32.6563 18.1291 32.8874 17.7729 33.0331 17.377C33.1788 16.9812 33.2511 16.5854 33.25 16.1895C33.25 15.7673 33.1777 15.3646 33.0331 14.9815C32.8885 14.5983 32.6573 14.2621 32.3396 13.9729L25.6104 7.24371C25.3201 6.92704 24.9834 6.6964 24.6003 6.55179C24.2171 6.40718 23.8155 6.33435 23.3953 6.33329C22.9995 6.33329 22.6037 6.40613 22.2078 6.55179C21.812 6.69746 21.4558 6.9281 21.1391 7.24371L20.7037 7.67913L23.6328 10.6479C24.0287 11.0173 24.319 11.4395 24.5037 11.9145C24.6884 12.3895 24.7808 12.8909 24.7808 13.4187C24.7808 14.527 24.405 15.4575 23.6534 16.2101C22.9019 16.9627 21.9714 17.3385 20.862 17.3375C20.3342 17.3375 19.8265 17.2451 19.3388 17.0604C18.8512 16.8757 18.4221 16.5986 18.0516 16.2291L15.0813 13.3L8.15417 20.227C8.07501 20.3062 8.01589 20.3922 7.97684 20.4851C7.93778 20.578 7.91773 20.6767 7.91667 20.7812C7.91667 20.9923 7.99584 21.1839 8.15417 21.356C8.31251 21.528 8.49723 21.6135 8.70834 21.6125C8.81389 21.6125 8.91945 21.5861 9.02501 21.5333C9.13056 21.4805 9.20973 21.4277 9.26251 21.375L14.6458 15.9916L16.8625 18.2083L11.5188 23.5916C11.4396 23.6708 11.3805 23.7568 11.3414 23.8497C11.3024 23.9426 11.2823 24.0413 11.2813 24.1458C11.2813 24.3569 11.3604 24.5416 11.5188 24.7C11.6771 24.8583 11.8618 24.9375 12.0729 24.9375C12.1785 24.9375 12.284 24.9111 12.3896 24.8583C12.4951 24.8055 12.5743 24.7527 12.6271 24.7L18.0104 19.3562L20.2271 21.5729L14.8833 26.9562C14.8042 27.009 14.7451 27.0882 14.706 27.1937C14.667 27.2993 14.6469 27.4048 14.6458 27.5104C14.6458 27.7215 14.725 27.9062 14.8833 28.0645C15.0417 28.2229 15.2264 28.302 15.4375 28.302C15.5431 28.302 15.6423 28.282 15.7352 28.2419C15.8281 28.2018 15.9136 28.1427 15.9917 28.0645L21.375 22.7208L23.5917 24.9375L18.2083 30.3208C18.1292 30.4 18.0701 30.4855 18.031 30.5773C17.9919 30.6691 17.9719 30.7683 17.9708 30.875C17.9708 31.0861 18.0569 31.2708 18.2289 31.4291C18.401 31.5875 18.592 31.6666 18.8021 31.6666ZM18.7625 34.8333C17.7861 34.8333 16.9221 34.5103 16.1706 33.8643C15.419 33.2183 14.9768 32.4066 14.8438 31.4291C13.9465 31.2972 13.1944 30.9277 12.5875 30.3208C11.9806 29.7138 11.6111 28.9618 11.4792 28.0645C10.582 27.9326 9.83673 27.5568 9.24351 26.9372C8.65028 26.3176 8.28717 25.5718 8.15417 24.7C7.15139 24.568 6.33334 24.1326 5.70001 23.3937C5.06667 22.6548 4.75001 21.784 4.75001 20.7812C4.75001 20.2534 4.84923 19.7457 5.04767 19.258C5.24612 18.7704 5.52953 18.3413 5.89792 17.9708L15.0813 8.82704L20.2667 14.0125C20.3195 14.0916 20.3986 14.1513 20.5042 14.1914C20.6097 14.2315 20.7153 14.251 20.8208 14.25C21.0583 14.25 21.2563 14.1777 21.4146 14.033C21.5729 13.8884 21.6521 13.6968 21.6521 13.4583C21.6521 13.3527 21.632 13.2472 21.5919 13.1416C21.5518 13.0361 21.4927 12.9569 21.4146 12.9041L15.7542 7.24371C15.4639 6.92704 15.1277 6.6964 14.7456 6.55179C14.3635 6.40718 13.9608 6.33435 13.5375 6.33329C13.1417 6.33329 12.7458 6.40613 12.35 6.55179C11.9542 6.69746 11.5979 6.9281 11.2813 7.24371L5.70001 12.8645C5.4625 13.102 5.26459 13.3791 5.10625 13.6958C4.94792 14.0125 4.84237 14.3291 4.78959 14.6458C4.73681 14.9625 4.73681 15.286 4.78959 15.6164C4.84237 15.9468 4.94792 16.2566 5.10625 16.5458L2.81042 18.8416C2.36181 18.2347 2.03195 17.5686 1.82084 16.8435C1.60973 16.1183 1.53056 15.3857 1.58334 14.6458C1.63612 13.9058 1.82084 13.187 2.1375 12.4893C2.45417 11.7916 2.88959 11.1646 3.44375 10.6083L9.02501 5.02704C9.65834 4.4201 10.3645 3.95829 11.1435 3.64163C11.9225 3.32496 12.7205 3.16663 13.5375 3.16663C14.3545 3.16663 15.153 3.32496 15.9331 3.64163C16.7131 3.95829 17.4056 4.4201 18.0104 5.02704L18.4458 5.46246L18.8813 5.02704C19.5146 4.4201 20.2208 3.95829 20.9998 3.64163C21.7788 3.32496 22.5768 3.16663 23.3938 3.16663C24.2108 3.16663 25.0093 3.32496 25.7893 3.64163C26.5694 3.95829 27.2618 4.4201 27.8667 5.02704L34.5563 11.7166C35.1632 12.3236 35.625 13.0229 35.9417 13.8145C36.2583 14.6062 36.4167 15.4111 36.4167 16.2291C36.4167 17.0472 36.2583 17.8457 35.9417 18.6247C35.625 19.4037 35.1632 20.0962 34.5563 20.702L21.5729 33.6458C21.2035 34.0152 20.7749 34.3055 20.2873 34.5166C19.7996 34.7277 19.2913 34.8333 18.7625 34.8333Z" fill="white"/>
</svg>
