<svg width="38" height="38" viewBox="0 0 38 38" fill="none" xmlns="http://www.w3.org/2000/svg">
<path d="M34.5517 1.72412L27.6378 3.09634L32.4582 9.32412L35.924 8.62042L34.5517 1.72412ZM22.4656 4.11671L18.9999 4.80282L23.8378 11.013L27.286 10.3269L22.4656 4.11671ZM13.8453 5.8056L10.3795 6.5269L15.2175 12.7371L18.6656 12.051L13.8453 5.8056ZM5.20729 7.56486L3.48322 7.89912C2.56907 8.08177 1.76478 8.61972 1.24692 9.39485C0.72906 10.17 0.539975 11.119 0.721179 12.0334L1.40729 15.4815L10.0277 13.775L5.20729 7.56486ZM1.40729 15.4815V33.0741C1.40729 34.0073 1.77799 34.9022 2.43784 35.5621C3.09769 36.2219 3.99264 36.5926 4.92581 36.5926H33.074C35.0267 36.5926 36.5925 35.0269 36.5925 33.0741V15.4815H1.40729Z" fill="white"/>
</svg>
