<svg width="38" height="37" viewBox="0 0 38 37" fill="none" xmlns="http://www.w3.org/2000/svg">
<path d="M17.703 26.1373L17.3792 34.0841L17.3362 34.5599L8.26602 33.9337C7.72051 33.8776 7.21023 33.6378 6.81877 33.2538C6.39175 32.8652 6.04998 32.3923 5.81506 31.8649L5.80432 31.8388C5.64926 31.4662 5.54499 31.0744 5.49431 30.6739L5.49124 30.6509C5.44423 30.1713 5.47533 29.6872 5.58332 29.2175L5.57718 29.2466C5.68564 28.7136 5.77004 28.3176 5.83041 28.0588C5.98695 27.494 6.14503 27.0351 6.32766 26.587L6.29543 26.6775C6.53996 26.0155 6.67655 25.6354 6.7052 25.5372C7.82964 25.7081 11.4946 25.9086 17.7 26.1388L17.703 26.1373ZM9.34339 13.4835L13.2308 21.6682L10.057 19.6823C9.21491 20.6369 8.43373 21.6436 7.71812 22.6965L7.65059 22.8023C7.11037 23.5743 6.58856 24.4599 6.13735 25.3838L6.08517 25.5019C5.73935 26.2621 5.45543 26.9425 5.2334 27.5431C5.06093 27.9674 4.92987 28.4073 4.84205 28.8568L4.83438 28.9044L4.74843 29.3571L0.646118 21.6482C0.405936 21.2906 0.271368 20.8725 0.257833 20.4419V20.4373C0.229478 20.0881 0.274434 19.7368 0.38982 19.406L0.385215 19.4244L0.557104 19.0361C1.06356 18.1296 1.88413 16.7786 3.0188 14.9829L0 13.1183L9.34339 13.4835ZM35.9248 24.6486L31.8716 32.4005C31.7101 32.8007 31.4394 33.1474 31.0904 33.4011L31.0843 33.4057C30.8131 33.6195 30.4974 33.7695 30.1604 33.8447L30.145 33.8477L29.7567 33.9337C28.7346 34.034 27.1584 34.1184 25.0283 34.1869L25.2001 37.7337L20.2338 29.8084L24.7934 21.9905L24.9438 25.726C27.0107 25.9523 29.094 25.9862 31.1671 25.8273L31.0536 25.835C32.3402 25.7529 33.6105 25.5027 34.8321 25.0906L34.7277 25.1213L35.9248 24.6486ZM18.9784 4.69416C18.3031 5.60067 16.3954 8.73202 13.2554 14.0882L6.41514 10.0503L6.00537 9.79711L10.8643 2.10969C11.1712 1.65234 11.6163 1.3101 12.1397 1.13974L12.1565 1.13514C12.7143 0.93188 13.3112 0.85891 13.9015 0.921813L13.8846 0.920279C14.2698 0.954042 14.6259 1.04459 14.9559 1.18272L14.9328 1.17351C15.2812 1.3147 15.5759 1.46817 15.8552 1.64313L15.8307 1.62932C16.1652 1.85339 16.4584 2.0882 16.7285 2.3445L16.7254 2.34143C17.0712 2.65861 17.3306 2.90672 17.5035 3.08577C17.6764 3.26482 17.9358 3.54875 18.2816 3.93754C18.6305 4.32634 18.8628 4.57854 18.9784 4.69416ZM33.1224 11.3226L37.7005 19.162C37.961 19.6745 38.0549 20.2556 37.969 20.8241L37.9706 20.8087C37.888 21.384 37.6822 21.9347 37.3674 22.4233L37.3766 22.4079C37.1798 22.7052 36.9416 22.9729 36.6691 23.2029L36.663 23.2075C36.4137 23.4231 36.1484 23.6196 35.8695 23.7953L35.8419 23.8107C35.5442 23.9872 35.1973 24.1468 34.8351 24.2726L34.7937 24.2849C34.3548 24.4435 34.0171 24.5586 33.7808 24.6302C33.5444 24.7018 33.1735 24.8026 32.6681 24.9325L31.6751 25.1858C31.185 24.1493 29.2774 21.0108 25.9522 15.7703L32.7111 11.559L33.1224 11.3226ZM30.0345 6.44221L33.1009 4.64965L28.3509 12.7054L19.3007 12.2742L22.562 10.4171C22.0789 9.13081 21.5103 7.87824 20.8599 6.66781L20.9428 6.83663C20.4538 5.88594 19.8941 4.97329 19.2684 4.10636L19.3114 4.16929C18.8152 3.49912 18.3507 2.92309 17.9179 2.44119C17.6117 2.08327 17.277 1.75069 16.9172 1.44669L16.905 1.43595L16.5382 1.15509L25.2784 1.17658C25.7142 1.1297 26.1541 1.21076 26.5446 1.40985L26.5323 1.40372C26.8653 1.55412 27.1462 1.76284 27.3764 2.01914L27.3779 2.02221L27.6158 2.34604C28.1775 3.2198 28.9837 4.5852 30.0345 6.44221Z" fill="#374109"/>
</svg>
