<svg width="38" height="36" viewBox="0 0 38 36" fill="none" xmlns="http://www.w3.org/2000/svg">
<path fill-rule="evenodd" clip-rule="evenodd" d="M17.8872 26.4805L17.2358 12.2191H20.7642L20.0857 26.4834L17.8872 26.4805ZM18.9566 32.0371C18.7299 32.0426 18.5047 31.9971 18.2953 31.9035C18.0859 31.8099 17.897 31.6702 17.7406 31.4934C17.5778 31.3263 17.4489 31.1248 17.362 30.9014C17.2751 30.678 17.2321 30.4377 17.2358 30.1956C17.2358 29.687 17.404 29.2524 17.7406 28.8919C17.8975 28.7162 18.0866 28.5776 18.296 28.485C18.5053 28.3924 18.7303 28.3478 18.9566 28.3541C19.4144 28.3541 19.8125 28.5314 20.1508 28.8861C20.4874 29.2407 20.6557 29.6772 20.6557 30.1956C20.659 30.4394 20.6151 30.6812 20.5268 30.9056C20.4384 31.1301 20.3076 31.3323 20.1427 31.4992C19.9893 31.671 19.805 31.8072 19.6011 31.8997C19.3971 31.9922 19.1778 32.0389 18.9566 32.0371ZM2.71472 38C2.24377 38.0001 1.78091 37.8682 1.37161 37.6173C0.962318 37.3665 0.620681 37.0052 0.380276 36.5691C0.139871 36.133 0.00897301 35.637 0.00044513 35.1299C-0.00808275 34.6228 0.106053 34.1221 0.331637 33.6769L16.6169 1.52388C16.8504 1.06273 17.1949 0.677837 17.6142 0.409679C18.0336 0.14152 18.5123 0 19 0C19.4877 0 19.9664 0.14152 20.3858 0.409679C20.8051 0.677837 21.1496 1.06273 21.3831 1.52388L37.6684 33.6769C37.8939 34.1221 38.0081 34.6228 37.9996 35.1299C37.991 35.637 37.8601 36.133 37.6197 36.5691C37.3793 37.0052 37.0377 37.3665 36.6284 37.6173C36.2191 37.8682 35.7562 38.0001 35.2853 38H2.71472ZM2.71472 35.077H35.2853L19 2.92399L2.71472 35.077Z" fill="white"/>
</svg>
