<svg width="38" height="38" viewBox="0 0 38 38" fill="none" xmlns="http://www.w3.org/2000/svg">
<rect x="1" y="1" width="30" height="33" rx="2" stroke="white" stroke-width="2"/>
<path d="M5.92004 31.5V3.5H16.3112C18.44 3.5 20.226 3.90104 21.6692 4.70312C23.1214 5.50521 24.2174 6.60807 24.957 8.01172C25.7057 9.40625 26.08 10.9922 26.08 12.7695C26.08 14.5651 25.7057 16.1602 24.957 17.5547C24.2084 18.9492 23.1034 20.0475 21.6421 20.8496C20.1809 21.6426 18.3814 22.0391 16.2436 22.0391H9.35671V17.8691H15.5671C16.8119 17.8691 17.8311 17.6504 18.6249 17.2129C19.4187 16.7754 20.005 16.1738 20.3838 15.4082C20.7717 14.6426 20.9656 13.763 20.9656 12.7695C20.9656 11.776 20.7717 10.901 20.3838 10.1445C20.005 9.38802 19.4142 8.80013 18.6114 8.38086C17.8176 7.95247 16.7938 7.73828 15.54 7.73828H10.9397V31.5H5.92004Z" fill="white"/>
</svg>
