<svg width="33" height="36" viewBox="0 0 33 36" fill="none" xmlns="http://www.w3.org/2000/svg">
<rect x="1" y="1" width="30.16" height="34" rx="4" stroke="white" stroke-width="2"/>
<path d="M6 32V4H16.3912C18.5199 4 20.3059 4.40104 21.7492 5.20312C23.2014 6.00521 24.2973 7.10807 25.037 8.51172C25.7857 9.90625 26.16 11.4922 26.16 13.2695C26.16 15.0651 25.7857 16.6602 25.037 18.0547C24.2883 19.4492 23.1834 20.5475 21.7221 21.3496C20.2608 22.1426 18.4613 22.5391 16.3235 22.5391H9.43667V18.3691H15.647C16.8918 18.3691 17.9111 18.1504 18.7049 17.7129C19.4986 17.2754 20.0849 16.6738 20.4638 15.9082C20.8516 15.1426 21.0456 14.263 21.0456 13.2695C21.0456 12.276 20.8516 11.401 20.4638 10.6445C20.0849 9.88802 19.4941 9.30013 18.6913 8.88086C17.8976 8.45247 16.8738 8.23828 15.62 8.23828H11.0197V32H6Z" fill="white"/>
<path d="M18.0758 32V27H18.9242V32H18.0758ZM16 29.9242V29.0758H21V29.9242H16Z" fill="white"/>
<path d="M22 32V27H23.8856C24.3215 27 24.6794 27.0667 24.9591 27.2002C25.2389 27.332 25.446 27.5135 25.5804 27.7446C25.7148 27.9757 25.782 28.2386 25.782 28.5332C25.782 28.8278 25.7148 29.089 25.5804 29.3169C25.446 29.5448 25.2398 29.7238 24.9619 29.854C24.6839 29.9826 24.3288 30.0469 23.8965 30.0469H22.3706V29.5H23.8747C24.1726 29.5 24.4124 29.4609 24.594 29.3828C24.7775 29.3047 24.9101 29.194 24.9918 29.0508C25.0754 28.9059 25.1172 28.7334 25.1172 28.5332C25.1172 28.333 25.0754 28.158 24.9918 28.0083C24.9083 27.8586 24.7748 27.743 24.5913 27.6616C24.4078 27.5786 24.1653 27.5371 23.8638 27.5371H22.6757V32H22ZM24.6267 29.7539L26 32H25.2153L23.8638 29.7539H24.6267Z" fill="white"/>
</svg>
