<svg width="38" height="38" viewBox="0 0 38 38" fill="none" xmlns="http://www.w3.org/2000/svg">
<path d="M19.498 4.49209L19.3917 4.44216L19.2854 4.49209L8.49157 9.56269L8.34786 9.6302V9.78897V17.3949C8.34786 24.5253 13.0129 31.2185 19.3292 32.8487L19.3917 32.8649L19.4542 32.8487C25.7704 31.2185 30.4355 24.5253 30.4355 17.3949V9.78897V9.6302L30.2918 9.56269L19.498 4.49209ZM5.25 17.2682V7.66755L19.1669 1.27511L33.0837 7.66755V17.2682C33.0837 26.1753 27.1331 34.4869 19.1669 36.532C11.2006 34.4869 5.25 26.1753 5.25 17.2682ZM8.84786 17.3949V9.94774L19.3917 4.99458L29.9355 9.94774V17.3949C29.9355 24.3115 25.4211 30.7559 19.3917 32.3483C13.3623 30.7559 8.84786 24.3115 8.84786 17.3949Z" fill="white" stroke="#031D2C" stroke-width="0.5"/>
</svg>
