<svg width="34" height="38" viewBox="0 0 34 38" fill="none" xmlns="http://www.w3.org/2000/svg">
<g clip-path="url(#clip0_155_416)">
<path d="M2.125 28.7208V11.4004C2.125 9.08371 3.43967 7.57258 6.069 6.86704C8.69833 6.16151 11.9609 5.77265 15.8567 5.70045L17.4505 2.85045H6.53863V1.16895H27.4614V2.85045H19.7391L18.1454 5.70045C22.1135 5.77138 25.3938 6.15771 27.9863 6.85945C30.5788 7.56498 31.875 9.07865 31.875 11.4004V28.7208C31.875 30.2472 31.28 31.5423 30.09 32.6063C28.9014 33.6691 27.4536 34.2004 25.7465 34.2004L28.934 37.0504V38.0004H27.1341L22.8841 34.2004H11.1159L6.86587 38.0004H5.06813V37.0504L8.25563 34.2004C6.54713 34.2004 5.09858 33.6684 3.91 32.6044C2.72 31.543 2.125 30.2491 2.125 28.7227M25.7465 22.8004H4.25H29.75H25.7465ZM17 29.6708C17.6673 29.6708 18.229 29.4663 18.6851 29.0571C19.1427 28.6493 19.3715 28.147 19.3715 27.5504C19.3715 26.9538 19.1427 26.4516 18.6851 26.0437C18.229 25.6346 17.6673 25.43 17 25.43C16.3327 25.43 15.771 25.6346 15.3149 26.0437C14.8573 26.4516 14.6285 26.9538 14.6285 27.5504C14.6285 28.147 14.8573 28.6493 15.3149 29.0571C15.771 29.4663 16.3327 29.6708 17 29.6708ZM16.9745 10.5245H29.5779H4.4455H16.9745ZM4.25 20.9004H29.75V12.4245H4.25V20.9004ZM8.25563 32.3004H25.7444C26.8565 32.3004 27.8021 31.9521 28.5813 31.2554C29.3604 30.5588 29.75 29.7133 29.75 28.7189V22.8004H4.25V28.7208C4.25 29.7139 4.63958 30.5588 5.41875 31.2554C6.19792 31.9521 7.14354 32.3004 8.25563 32.3004ZM16.9766 7.60045C12.585 7.60045 9.48458 7.85441 7.6755 8.36235C5.86642 8.87028 4.78975 9.59101 4.4455 10.5245H29.5779C29.235 9.56948 28.1534 8.84305 26.3287 8.34525C24.5041 7.84745 21.3867 7.59918 16.9766 7.60045Z" fill="white"/>
</g>
<defs>
<clipPath id="clip0_155_416">
<rect width="34" height="38" fill="white"/>
</clipPath>
</defs>
</svg>
